<?xml version="1.0" encoding="UTF-8"?>
<svg id="Layer_1" xmlns="http://www.w3.org/2000/svg" version="1.1" viewBox="0 0 1024 1024">
  <!-- Generator: Adobe Illustrator 29.8.2, SVG Export Plug-In . SVG Version: 2.1.1 Build 3)  -->
  <defs>
    <style>
      .st0 {
        fill: #89db96;
      }

      .st1 {
        fill: #fff;
      }

      .st2 {
        fill: #251715;
      }

      .st3 {
        fill: none;
      }

      .st4 {
        fill: #f7c3a8;
      }

      .st5 {
        fill: #3b2826;
      }

      .st6 {
        fill: #f2bda1;
      }

      .st7 {
        fill: #ec9e81;
      }

      .st8 {
        fill: #f5f5f4;
      }

      .st9 {
        fill: #e0e1e1;
      }

      .st10 {
        fill: #eb997e;
      }
    </style>
  </defs>
  <circle class="st0" cx="432.49" cy="276.87" r="14.72"/>
  <circle class="st1" cx="544.76" cy="263.99" r="24.59"/>
  <circle class="st0" cx="545.63" cy="266.98" r="14.72"/>
  <path class="st2" d="M437,889c.33.02.67-.02,1,0,43.02,2.2,93.13,2.65,135.54-5,1.42-.26,3.24.27,4.46,0l2.47,35.03c9.41,16.84,20.66,32.86,27.53,50.97-4.69,4.88-10.21,9.08-14,14.47l19,39.53h-318c2.2-22.72,8.26-45.01,17.82-65.68,3.17-6.86,7.48-15.86,11.18-22.32.82-1.43,2.09-3.49,3-5,4.25-7.05,13.76-17.27,16.77-23.73,2.41-5.15,3.32-15.92,5.23-22.27.78-2.6,2.75-9.08,4-11,.46-.71.5-1.57,1.64-1.89,3.56-.97,14.88,6.04,19.09,7.65,18.24,6.99,43.74,8.14,63.27,9.23Z"/>
  <path class="st4" d="M730,921c-3.69,5.35-8.66,11.12-13,16-24.56,27.62-53.58,51.76-77.98,79.52-1.7,1.94-4.27,5.01-5.02,7.48h-21l-19-39.53c3.79-5.39,9.31-9.59,14-14.47,17.62-18.33,31.08-40.37,44.85-61.67,1.04-1.61.94-4,1.15-4.33.06-.09,1.39.27,2.01-.7,4.78-7.39,8.45-16.22,14.99-22.3l9.5-1.08c19.47,1.35,37.07,12.99,45.37,30.71,1.6,3.41,1.98,7.34,4.12,10.38Z"/>
  <path class="st4" d="M324,936c-3.7,6.46-8.01,15.46-11.18,22.32-9.56,20.67-15.62,42.97-17.82,65.68h-26c-.22-2.07.07-4.02.45-6.05,5.97-31.75,13.96-63.33,20.55-94.95l34,13Z"/>
  <path class="st8" d="M717,937c4.34-4.88,9.31-10.65,13-16,3.03-4.4,6.22-7.02,4.23-12.73-2.7-7.76-15.88-19.78-22.89-24.1-10.75-6.62-29.97-12.8-40.33-3.17-6.54,6.09-10.21,14.91-14.99,22.3-.62.96-1.95.61-2.01.7-1.14-6.86-2.31-12.1-.56-19.06,1.06-4.25,3.93-8.57,5.34-12.66,3.24-9.38,5.21-19.04,11.22-27.28,13.23-8.39,28.11-12.77,43.64-14.86,7.83-1.06,15.6-.87,23.36-2.14.17-1.07-.02-1.93-.98-2.51-3.53-2.13-25.87.87-31.22,1.82-13.22,2.35-26.69,6.57-36.8,15.7-5.55-7.48-5.88-12.32-3.71-21.21,1.13-4.64,4.6-10.44,3.53-15.08-9.08-15.12-15.57-31.58-20.53-48.49-3.41-11.63-5.16-25.94-9.19-36.82-.4-1.08-.38-2.81-2.08-1.4-.26.21-1.46,4.9-2.15,6.36-11.78,24.64-26.8,49.48-35.88,75.12-2.17,6.12-7.39,20.05-6.92,25.9,1.43,17.69,30.67,35.14,4.28,49.46-3.26,1.77-14.06,6.44-17.33,7.17-1.22.27-3.04-.26-4.46,0-42.41,7.66-92.52,7.21-135.54,5,2.48-4.08.11-8.36-.05-12.45-1.05-27.13,1.33-54.13.05-81.05-1.42-29.82-8.1-63.57-6.05-93.04.87-12.44,6.87-25.32,7.93-37.07.61-6.66-.5-13.86.11-20.39.45-4.78,8.39-15.45,11.6-19.9,14.4-19.95,32.59-38.05,46.22-58.78,5.96-9.06,10.44-18.94,15.45-28.55.74-1.43.78-3.19,2.73-3.77-6.59,14.05-7.81,28.02-11,43,1.71.42,2-.65,3-1.49,5.97-4.98,11.91-13.68,18.64-17.36,18.97-10.34,40.95,8.27,59.35,11.85,3.44-22.52,5.95-45.91,11.49-68.02.48-1.93,1.14-4.53,2.52-5.99,9.42,4.97,19.8,9.9,29.73,13.77,14.59,5.7,62.91,17.72,70.13,29.87,20.28,34.09,22.29,84.17,30.44,122.56,7.3,34.35,17.24,69.34,25.24,103.76,3.22,13.87,4.73,27.83,9.7,41.3,3.15,8.54,10.87,19.58,10.84,28.25-.05,12.43-7.44,25.41-8.11,37.02-.27,4.72,1.63,8.59,2.02,12.98,1.27,14.45-5.61,26.53-15.98,36.02-9.77,8.93-23.29,17.38-37.02,15.48Z"/>
  <path class="st8" d="M475,461c-.08,3.59.43,6.18,0,11-.19,2.09.22,4.25-.11,6.39-2.29,14.75-12.48,21.77-20.31,33.69-15.46,23.54-16.62,46.75-17.62,74.38-.71,19.48,1.23,39.38,1.05,58.55-.17,18.12-4.54,28.97-7.74,45.76-6.03,31.54,3.44,73.06,4.75,105.74.98,24.59-1.53,49.73,0,74,.39,6.17-.18,12.55,2,18.5-19.53-1.1-45.02-2.24-63.27-9.23-4.21-1.61-15.53-8.62-19.09-7.65-1.14.31-1.18,1.17-1.64,1.89-5.33.29-16.16-5.32-16.94-10.55-1.46-9.73,4.7-18.5,7.71-27.18,3.74-10.79,5.22-20.22,4.23-31.77-1.76-20.49-10.11-52.08-15.28-72.72-1.43-5.74-3.14-12.46-5.03-18.01-.56-1.64-.17-3.28-2.69-2.77.49-5.95-.5-12.4.11-18.39.65-6.41,3.97-12.31,4.89-18.61,2.52.57,2.02-1.29,2.8-2.65,7.01-12.22,15.96-25.12,20.67-38.38,6.35-17.85.26-35.94.53-54.47l-2-14.5c4.5-6.49,6.4-9.34,13.08-14.42,11.51-8.76,25.98-15.17,38.92-21.58-4.12,6.73-7.01,14.7-10.82,21.68-1.31,2.4-9.69,13.68-8.17,15.32l11.02-5.47,13.6-4.48,14.4,4.51c7.72-5.9-2.86-24.85-8.51-29.57-3.09-2.58-6.18-2.36-9.52-3.98,5.98-9.14,13.25-17.81,20.48-26.02,13.76-15.64,28.33-31.79,48.52-38.98ZM383.5,565v1c.65-.33.65-.67,0-1Z"/>
  <path class="st4" d="M555,443c.37,2.31.54,4.69,1,7,1.09,5.48,2.59,12.02,5,17-10,18.72-21,35.41-34.02,52.48-3.4,4.47-7.15,7.54-9.98,12.52-.41.73-.65,1.26-1,2-1.95.58-1.99,2.35-2.73,3.77-5.01,9.61-9.49,19.48-15.45,28.55-13.63,20.73-31.82,38.83-46.22,58.78-3.21,4.45-11.15,15.12-11.6,19.9h-2c.18-19.17-1.75-39.07-1.05-58.55,1-27.63,2.16-50.84,17.62-74.38,7.83-11.92,18.02-18.95,20.31-33.69.33-2.14-.08-4.29.11-6.39,14.77-.29,30.38-5.54,43.68-11.82,12.61-5.95,24.17-13.94,35.32-22.18.24,1.8.73,3.34,1,5Z"/>
  <path class="st9" d="M325,711c2.52-.52,2.13,1.13,2.69,2.77,1.89,5.55,3.6,12.28,5.03,18.01,5.16,20.64,13.51,52.24,15.28,72.72.99,11.54-.49,20.98-4.23,31.77-3.01,8.69-9.17,17.46-7.71,27.18.79,5.23,11.61,10.84,16.94,10.55-1.25,1.92-3.22,8.4-4,11-21.01-3.83-43.13-10-59-25,1.03-2.71,1.88-5.25,3.99-7.51,2.4-2.57,11.06-7.39,11.87-10.2.87-2.99-5.5-12.93-6.42-17.23-1.96-9.18,4.84-16.09,8.28-23.84,7.04-15.85,15.74-71.43,17.28-90.22Z"/>
  <path class="st8" d="M597,494c-8.04,22.32-12.42,45.94-18.01,69-1.15.18-1.94-.06-2.97-.52-3.48-1.57-10.76-7.15-14.34-9.66-7.17-5.03-29.41-24.57-36.2-24.9-4.82-.23-4.41,3.28-8.48,4.08,2.84-4.98,6.58-8.05,9.98-12.52,13.02-17.07,24.01-33.76,34.02-52.48.11-.2,1.32-.65,1.83-1.63,2.28-4.43,5.1-7.86,4.17-13.37,4.87,2.49,5.61,4.45,8.82,8.68,6.9,9.07,14.78,20.65,20.62,30.43.65,1.09.37,2.55.56,2.89Z"/>
  <path class="st10" d="M551,397c.37,13.58,1.18,27.51,3,41-11.15,8.25-22.71,16.24-35.32,22.18-13.31,6.28-28.92,11.53-43.68,11.82.43-4.82-.08-7.41,0-11,.06-2.72,1.99-7.44,1-11l-3-30c30.28,13.93,51.55-4.8,74.66-21.88,1.08-.8,3.14-.94,3.34-1.12Z"/>
  <path class="st8" d="M349,885c-1.91,6.35-2.82,17.12-5.23,22.27-3.02,6.45-12.53,16.67-16.77,23.73-3.73-.14-7.46-1.43-11-2.5-8.47-2.54-17.83-5.24-26-8.5-2.65-1.06-10.04-4.1-10.82-6.68-2.09-6.88,7.34-21.32,8.59-29.05,1.42-8.8-1.3-15,2.23-24.27,15.87,15,37.99,21.17,59,25Z"/>
  <path class="st9" d="M600,496c-1.38,1.46-2.03,4.06-2.52,5.99-5.54,22.1-8.05,45.49-11.49,68.02-18.4-3.58-40.37-22.19-59.35-11.85-6.74,3.67-12.68,12.38-18.64,17.36-1,.84-1.3,1.91-3,1.49,3.19-14.97,4.41-28.94,11-43,.35-.74.59-1.27,1-2,4.07-.8,3.67-4.31,8.48-4.08,6.78.32,29.03,19.86,36.2,24.9,3.58,2.51,10.86,8.09,14.34,9.66,1.03.47,1.82.71,2.97.52,5.59-23.07,9.97-46.68,18.01-69,.09.16,2.61,1.8,3,2Z"/>
  <path class="st9" d="M352,564l2,14.5c-.27,18.53,5.82,36.62-.53,54.47-4.71,13.25-13.66,26.16-20.67,38.38-.78,1.36-.28,3.22-2.8,2.65,5.59-37.98-.95-76.87,22-110Z"/>
  <path class="st9" d="M406,526c3.33,1.62,6.42,1.4,9.52,3.98,5.65,4.72,16.23,23.66,8.51,29.57l-14.4-4.51-13.6,4.48-11.02,5.47c-1.52-1.64,6.86-12.92,8.17-15.32,3.82-6.97,6.71-14.94,10.82-21.68.43-.7,1.54-1.3,2-2Z"/>
  <path class="st7" d="M327,931c-.91,1.51-2.18,3.57-3,5l-34-13c.18-.87-.12-2.05,0-3,8.16,3.26,17.53,5.96,26,8.5,3.54,1.06,7.27,2.36,11,2.5Z"/>
  <path class="st9" d="M567,452c.92,5.51-1.9,8.94-4.17,13.37-.51.98-1.72,1.43-1.83,1.63-2.41-4.98-3.91-11.52-5-17,2.72.17,5.7-.39,8.35.19,1.56.34,1.96,1.46,2.65,1.81Z"/>
  <path class="st9" d="M440,645c-.61,6.53.5,13.73-.11,20.39-1.07,11.74-7.07,24.63-7.93,37.07-2.05,29.47,4.63,63.22,6.05,93.04,1.28,26.92-1.1,53.92-.05,81.05.16,4.1,2.52,8.38.05,12.45-.33-.02-.67.02-1,0-2.18-5.96-1.61-12.34-2-18.5-1.53-24.27.98-49.41,0-74-1.31-32.68-10.77-74.2-4.75-105.74,3.21-16.78,7.57-27.64,7.74-45.76h2Z"/>
  <path class="st7" d="M730,921c-2.14-3.04-2.53-6.97-4.12-10.38-8.3-17.72-25.9-29.36-45.37-30.71l-9.5,1.08c10.36-9.64,29.58-3.45,40.33,3.17,7.01,4.32,20.19,16.34,22.89,24.1,1.99,5.71-1.19,8.33-4.23,12.73Z"/>
  <path class="st9" d="M668,843c10.11-9.13,23.58-13.35,36.8-15.7,5.35-.95,27.69-3.95,31.22-1.82.96.58,1.15,1.44.98,2.51-7.77,1.27-15.53,1.08-23.36,2.14-15.52,2.09-30.41,6.48-43.64,14.86-1.14-.28-1.41-1.2-2-2Z"/>
  <path class="st6" d="M635,234c5.37,1.11,9.86,9.03,11,14,.82,3.57.97,7.73,2,12v2c0,1.62.16,3.45,0,5-1.77,16.69-9.63,30.94-22,42-.6.59-3.97,3.31-5,4-5.87,4.2-11.11,1-17-.99-.06.65.07,1.34,0,1.99-.52,4.41-1.97,8.93-3,13-8.92,35.24-24.62,47.14-50,70-.2.18-2.26.32-3.34,1.12-23.11,17.08-44.38,35.81-74.66,21.88-23.91-11-63.35-38.88-75-63-.23-.47-7.59-20.66-10-29-.17-.6-1.66-5.76-.5-6,15.88,11.22,37.41,9.63,54.5,2,13.67-6.1,20.98-14.54,25-29,1.04-3.75,4.89-20.78,3-23,2.77-1.7,4.02-4.43,7.55-4.95,19.71-2.92,16.66,6.54,21.96,19.94,2.97,7.5,8.7,17.89,15,23,20.61,16.7,60.1,12.25,77.46-7.5,12.42-14.14,11.92-28.87,16.47-45.53,1.03-3.77,10.35-15.74,13.63-18.37s8.82-5.43,12.91-4.59ZM644,250c-1.48-5.38-5.5-9.13-11.29-7.8-4.65,1.06-15.97,13.15-17.24,17.77-2.01,7.35,3.06,10.59,2.54,15.46-.47,4.35-9.04,10.07-2.4,14.47,3.63,2.41,6.82.08,10.07-1.72,8.24-4.57,10.56-8.33,5.88-17.22-3.75-7.13-11.96-9.48-5.99-17.89s10.17-3.14,18.43-3.07ZM479.69,312.19c-4.66,1.4-3.23,10.15,1.86,10.84,9.55,1.3,9.15-14.14-1.86-10.84ZM473.95,316.04c-.15-.2-2.72-.15-3.34.07-2.11.74-2.36,5.81-3.1,7.9-1.16,3.27-3.86,4.27-2.33,9.31,1.21,3.97,18.22,8.11,22.23,7.6,3.21-.4,17.72-6.71,18.47-9.61.46-1.52-.28-2.45-1.35-3.36-5.46-4.67-21.77-.23-28.61-1.39-1.67-1.12-.63-8.71-1.98-10.52ZM524,359c-6.34-1.43-24.93-5.54-30.4-4.97-2.05.21-4.01,1.61-6.18,1.9-3.8.51-7.41-.26-11.48.52-7.17,1.37-15.52,6.96-22.94,8.56-.27,1.3,1.21,1.12,1.99,1.99,10.94,12.08,17.18,19.32,35.5,18s25.8-12.37,36.49-24.51c.52-2.48-1.61-1.18-2.99-1.49Z"/>
  <path class="st6" d="M530,134c7.16.88,25.59,13.89,31.48,19.02,22.73,19.76,45.29,48.71,46.51,79.98-1.92.17-3.61-.88-5.48-1.01-35.46-2.41-77.85-1.75-103.21,26.84-8.62-.41-16.45-2.8-25.11-.12-4.68,1.45-6.95,4.93-12.2,2.3-1.84-.92-4.43-3.58-6.69-4.81-18.69-10.2-36.31-11.24-57.31-10.19-.61-7.76,3.96-14.52,5-22l49.99,9c.35-14.94-15.31-16.04-26.63-17.86-5.44-.88-11.92-1.89-17.36-2.14,10.8-29.87,30.71-55.04,57.69-71.81,3.75-2.33,10.35-3.43,11.31-8.19,15.17-.87,37.35-.8,52,1ZM593.99,220c1.98-2.33-7.19-11.06-8.98-12.52-14.9-12.15-30.48-6.79-47.24-2.2-13.08,3.58-31.51,6.61-30.77,23.72,17.58-3.24,34.07-11.65,50.99-16.5,15.45-4.43,23.78-3.22,35.99,7.5Z"/>
  <path class="st6" d="M558.78,237.28c15.74-1.11,38.12-2.38,40.96,17.48,3.01,21.05-7.58,49.13-28.76,56.73-25.81,9.26-57.19,3.62-65.27-25.7-9.65-35.03,25.08-46.53,53.07-48.5ZM516,279c.15,1.98-.13,4.02,0,6,25.23,3.08,51.63,6.75,64.17-20.32.82-1.78,1.61-6.41,1.82-6.68.08-.1,1.59-.03,2.42-1.03,1.23-1.5,7.65-10.95,6.58-11.96-8.82,1.4-17.06-2.41-25.45-3.05-19.66-1.48-39.78,6.46-47.56,25.52-2.11,5.15-2.35,6.53-1.98,11.52Z"/>
  <path class="st2" d="M530,134c-14.65-1.8-36.83-1.87-52-1-11.89.68-29.73,3.28-41,7-.81-3.22,4.24-5.53,6.47-7.03,15.63-10.49,40.76-21.32,59.77-18.72,9.83,1.34,24.01,9.44,26.75,19.75Z"/>
  <path class="st2" d="M635,234c2.97-26.86-.57-55.54-10.92-80.6l1.9-1.4c12.74,28.62,17.07,60.03,20.51,91,.17,1.49,1.55,3.97-.5,5-1.14-4.97-5.63-12.89-11-14Z"/>
  <path class="st2" d="M648,262v-2c.56,2.33,0,1.32,0,2Z"/>
  <path class="st9" d="M383.5,565c.65.33.65.67,0,1v-1Z"/>
  <path class="st6" d="M462,294c-2.19,9.67-11.33,21.32-20,26-18.27,9.85-41.74,7.38-57-6-.31-6.02-1.17-12.05-2-18l16-11c.62.81,6.43,5.09,7.67,5.83,15.91,9.51,34.2,2.6,51.14,0,2.04-3.26-.35-7.01-1.82-10.13-.51-1.08-.9-.6-1.99-3.69-3.19-9.11-5.86-13.84-15.12-18.38-14.46-7.1-27.9-5.87-42.88-1.62v-6c29.82-3.6,75.36,1.77,66,43Z"/>
  <path class="st5" d="M378,257c-.2,5.75,1.27,11.36,2,17,.96,7.35,1.98,14.67,3,22,.83,5.95,1.69,11.98,2,18-.39-.34-2.05-.46-3.54-1.94-8.02-7.99-15.51-33.46-13.25-44.34.5-2.41,4.16-8.44,6.27-9.76,1.44-.91,3.37-.84,3.51-.95Z"/>
  <path class="st7" d="M524,359c1.39.31,3.51-.99,2.99,1.49-10.69,12.14-18.96,23.25-36.49,24.51s-24.56-5.92-35.5-18c21.81,2.26,45.11,1.62,66.02-5.53,1.65-.56,3.56.24,2.98-2.47Z"/>
  <path class="st10" d="M524,359c.58,2.72-1.33,1.91-2.98,2.47-20.91,7.14-44.21,7.78-66.02,5.53-.79-.87-2.26-.69-1.99-1.99,7.43-1.6,15.77-7.19,22.94-8.56,4.07-.78,7.68-.01,11.48-.52,2.16-.29,4.12-1.69,6.18-1.9,5.47-.57,24.05,3.54,30.4,4.97Z"/>
  <path class="st10" d="M644,250c-8.27-.07-12.44-5.38-18.43,3.07s2.24,10.76,5.99,17.89c4.69,8.9,2.36,12.66-5.88,17.22-3.24,1.8-6.43,4.12-10.07,1.72-6.64-4.4,1.93-10.11,2.4-14.47.52-4.87-4.55-8.11-2.54-15.46,1.26-4.62,12.59-16.71,17.24-17.77,5.78-1.32,9.81,2.43,11.29,7.8Z"/>
  <path class="st7" d="M473.95,316.04c1.35,1.81.31,9.41,1.98,10.52,6.84,1.16,23.14-3.27,28.61,1.39,1.07.92,1.81,1.85,1.35,3.36-.75,2.9-15.26,9.2-18.47,9.61-4.02.51-21.02-3.63-22.23-7.6-1.54-5.04,1.17-6.04,2.33-9.31.74-2.09.99-7.16,3.1-7.9.62-.22,3.19-.28,3.34-.07Z"/>
  <path class="st4" d="M479.69,312.19c11.01-3.3,11.41,12.14,1.86,10.84-5.09-.69-6.52-9.45-1.86-10.84Z"/>
  <path class="st5" d="M593.99,220c-12.22-10.72-20.54-11.93-35.99-7.5-16.93,4.85-33.41,13.26-50.99,16.5-.74-17.1,17.7-20.14,30.77-23.72,16.76-4.59,32.34-9.95,47.24,2.2,1.79,1.46,10.96,10.18,8.98,12.52Z"/>
  <path class="st5" d="M409,213c5.44.24,11.92,1.26,17.36,2.14,11.32,1.82,26.98,2.92,26.63,17.86l-49.99-9c-11.28-.92-17.3,1.33-24.51,9.98l3.31-8.68c6.89-10.83,14.76-12.86,27.2-12.3Z"/>
  <path class="st10" d="M437,140c-4.88,1.61-6.5,2.68-10.48,6.02-16.44,13.79-45.69,51.62-49.42,72.58-1.73,9.75-1.47,20.65-.1,30.4,7-1.37,13.81-2.64,21-3-.61-7.76,3.96-14.52,5-22-11.28-.92-17.3,1.33-24.51,9.98l3.31-8.68c6.89-10.83,14.76-12.86,27.2-12.3,10.8-29.87,30.71-55.04,57.69-71.81,3.75-2.33,10.35-3.43,11.31-8.19-11.89.68-29.73,3.28-41,7Z"/>
  <path class="st10" d="M391,270c-2.83-2.45-11.55-12.72-3-12,.69.06,1.68,1.07,3.39.96,2.34-.15,3.43-1.63,4.61-1.96v-6c-3.16.38-5.96,1.27-9,2-2.51.6-5.66.65-8.27,2.03-1.17.62-.64,1.91-.73,1.97-.2,5.75,1.27,11.36,2,17,.96,7.35,1.98,14.67,3,22l16-11c-2.23-2.92-4.15-12.86-5-14-.09-.13-2.2-.31-3-1Z"/>
  <path class="st8" d="M421.69,264.14c5.97-1.7,7.71,8.03,1.65,8.65-5.14.53-5.99-7.42-1.65-8.65Z"/>
  <path class="st5" d="M687.72,291.78c-9.22-36.38-19.33-75.84-30.45-111.55-16.82-53.99-54.94-127.75-123.58-109.37-11.24-11.88-25.01-19.33-41.29-21.76-52.45-7.83-105.74,30.21-131.82,72.97-34.98,57.35-39.34,102.02-49.69,166.31-11.58,71.88-38.03,137.97,43.43,177.81,17.06,8.35,41.17,14.72,60.24,13.85,3.09-.14,6.36-1.19,9.45-1.54-4.47-4.36-12.86-6.31-15-12.5-5.01.18-18.45-17.55-21.42-22.08-16.06-24.51-22.36-64.36-23.63-93.37-.89-20.27,1.94-43.3.05-63.05-.36-3.72-2.87-12.52-5.33-15.17-1.18-1.27-3.8-1.71-4.48-4.02-.73-2.48-.93-12.94,1.47-14.14,4.11-2.06,16.2-4.16,21.34-5.16-1.37-9.75-1.63-20.65.1-30.4,3.72-20.96,32.97-58.79,49.42-72.58,3.98-3.34,5.6-4.4,10.48-6.02-.81-3.22,4.24-5.53,6.47-7.03,15.63-10.49,40.76-21.32,59.77-18.72,9.83,1.34,24.01,9.44,26.75,19.75,7.16.88,25.59,13.89,31.48,19.02,22.72,19.75,45.27,48.69,46.51,79.94l6.44.42.65,13.12c2.68-3.48,5.49-6.69,7.01-7.9,3.14-2.51,8.82-5.43,12.91-4.59,2.97-26.86-.57-55.54-10.92-80.6l1.9-1.4c12.74,28.62,17.07,60.03,20.51,91,.17,1.49,1.55,3.97-.5,5,.82,3.57.97,7.73,2,12,.56,2.33,0,1.32,0,2,0,1.62.16,3.45,0,5l4,36.5c.9,47.71-.07,105.6-37.99,140.02-2.55,2.32-5.86,4.06-8.06,7.03-1.25.9-2.14-.35-2.96-.55-.67,4.91-6.69,5.35-9,8.99,23.56-1.58,48.61-10.9,67.9-24.59,48.3-34.29,38.5-92.56,25.82-142.62Z"/>
  <path class="st5" d="M591,245c-8.82,1.4-17.06-2.41-25.45-3.05-19.66-1.48-39.78,6.46-47.56,25.52-2.11,5.15-2.35,6.53-1.98,11.52,3.9-6.38,5.68-14.29,11.99-19,8.18-6.42,17.01-13.48,29.01-12,9.43,1.04,18.14,3.09,25,10,.08-.1,1.59-.03,2.42-1.03,1.23-1.5,7.65-10.95,6.58-11.96Z"/>
  <path class="st5" d="M450,274l4,3c-3.19-9.11-5.86-13.84-15.12-18.38-14.46-7.1-27.9-5.87-42.88-1.62-1.19.34-2.27,1.82-4.61,1.96-1.7.11-2.7-.91-3.39-.96-8.55-.72.17,9.55,3,12,.8.69,2.91.87,3,1,5.68-8.77,14.89-10.85,24.83-10.99v-.02s15.8-1.4,31.18,14.02Z"/>
  <path class="st1" d="M539.12,263.57c6.06-.62,4.32-10.35-1.65-8.65-4.34,1.24-3.5,9.18,1.65,8.65Z"/>
  <path class="st2" d="M652,303.5l-4-36.5c-1.77,16.69-9.63,30.94-22,42-.67.64-3.79,3.13-5,4-5.87,4.2-11.11,1-17-.99-.06.65.07,1.34,0,1.99-.52,4.41-1.97,8.93-3,13-.24.93-2.08,7.4-2.43,8.48-9.24,28.85-24.35,40.6-47.57,61.52.37,13.58,1.18,27.51,3,41,.24,1.8.73,3.34,1,5,16.6-1.33,32.17,3.15,48,7,.83.2,1.71,1.45,2.96.55,2.2-2.97,5.5-4.71,8.06-7.03,37.92-34.42,38.89-92.32,37.99-140.02Z"/>
  <path class="st2" d="M614.43,233.37l-6.44-.42s0,.02,0,.04c-1.92.17-3.61-.88-5.48-1.01-35.46-2.41-77.85-1.75-103.21,26.84-8.62-.41-16.45-2.8-25.11-.12-4.68,1.45-6.95,4.93-12.2,2.3-1.84-.92-4.43-3.58-6.69-4.81-18.69-10.2-36.31-11.24-57.31-10.19-7.19.36-14,1.63-21,3-5.14,1-17.23,3.1-21.34,5.16-2.4,1.2-2.2,11.66-1.47,14.14.68,2.31,3.3,2.75,4.48,4.02,2.46,2.65,4.97,11.46,5.33,15.17,1.89,19.75-.93,42.78-.05,63.05,1.27,29.02,7.57,68.87,23.63,93.37,2.97,4.53,16.41,22.26,21.42,22.08,21.32-8.4,43.95-15.17,67-16l-3-30c-22.79-10.49-59.68-36.31-73.17-59.6h0c-.31-.53-.61-1.06-.89-1.59-.32-.6-.64-1.21-.93-1.81-.23-.47-7.59-20.66-10-29-.17-.6-1.66-5.76-.5-6,.57.41,1.16.79,1.74,1.16.04.02.08.05.11.07.57.36,1.15.7,1.73,1.03,0,0,0,0,0,0h0c15.43,8.68,35.08,6.81,50.91-.26,13.67-6.1,20.98-14.54,25-29,1.04-3.75,4.89-20.78,3-23,2.77-1.7,4.02-4.43,7.55-4.95,19.71-2.92,16.66,6.54,21.96,19.94,2.97,7.5,8.7,17.89,15,23,20.61,16.7,60.1,12.25,77.46-7.5,12.42-14.14,11.92-28.87,16.47-45.53.55-2.03,3.51-6.42,6.63-10.46l-.65-13.12ZM462,294c-2.19,9.67-11.33,21.32-20,26-18.27,9.85-41.74,7.38-57-6-.39-.34-2.05-.46-3.54-1.94-8.02-7.99-15.51-33.46-13.25-44.34.5-2.41,4.16-8.44,6.27-9.76,1.44-.91,3.37-.84,3.51-.95.08-.06-.44-1.35.73-1.97,2.62-1.39,5.76-1.43,8.27-2.03,3.04-.73,5.84-1.62,9-2,29.82-3.6,75.36,1.77,66,43ZM570.99,311.49c-25.81,9.26-57.19,3.62-65.27-25.7-9.65-35.03,25.08-46.53,53.07-48.5,15.74-1.11,38.12-2.38,40.96,17.48,3.01,21.05-7.58,49.13-28.76,56.73Z"/>
  <path class="st8" d="M557,248c1.39.52,5.33,7.51,5.21,9.28,8.88,31.73-37.69,35.35-34.22,2.71-6.32,4.71-8.09,12.62-11.99,19,.15,1.98-.13,4.02,0,6,25.23,3.08,51.63,6.75,64.17-20.32.82-1.78,1.61-6.41,1.82-6.68-6.86-6.91-15.57-8.95-25-10Z"/>
  <path class="st3" d="M417.84,295.76c-3.14-3.91-6.23-7.74-6.23-7.74l4.53-24.13,2.2-1.74c-34.63-1.9-24.99,28.37-.5,33.61Z"/>
  <path class="st5" d="M418.33,262.15s20.97-3.31,31.94,13.96c.59.93,1.03,1.84,1.36,2.73l5.48,10.99c-.06-.74-.06-1.48-.08-2.22-1.6-30.25-29.97-34.19-53.76-32.92.2,1.46-11.57-.19-11.85.45-1.07.76,2.75,5.45-4.99,0,5.39,6.6-8.83,3.92-1.01,10.48-4.72,1.28.65,1.97.91,2.59.2.49-1.19,1.97-.84,2.76.47,1.08,5.32.44.94,3.11,5.52-.41,6.07,4.03,3.99,6.99l3.99.02-2.99,2.97c8.57-.75,1.22,1.64,6.98,3.99l-2.99,1,5.97.02-2.98,2.97,4.97-.98-.99,2.98c4.66-1.09,9.68,2.99,15.84,2.18-.13-.16-.26-.32-.39-.48-24.49-5.24-34.14-35.5.5-33.61Z"/>
  <path class="st5" d="M451.63,278.84c-.33-.89-.77-1.8-1.36-2.73l1.36,2.73Z"/>
  <path class="st5" d="M417.84,295.76c.13.16.26.32.39.48.37-.05.74-.11,1.11-.19-.51-.08-1-.18-1.5-.29Z"/>
  <path class="st2" d="M418.33,262.15c-13.59,28.43,24.02,44.23,31.94,13.96-10.97-17.27-31.94-13.96-31.94-13.96ZM420.49,271.93c-3.6-5.51,5.53-7.03,6.79-3.23,1.24,3.74-5.23,5.62-6.79,3.23ZM426.92,288.95c-6.13-2.81-5.93-8.79-2.11-8.85.58,0,3.69,5.17,10.48,3.52,7.55-1.79,5.1-11.52,9.42-3.97,4.91,8.57-10.29,12.74-17.79,9.3Z"/>
  <path class="st5" d="M592.46,249.7c-.51-.48-3.11,1.44-3.99.99-2.54-1.33,7.07-8.41-6.98-3.99l.99-2.98c-2.75.61-9.86.19-7.99-3-4.18,4.09-3.52-1.53-8.97.99.1-.49.32-.91.63-1.27-25.25-.53-54.01,14.71-51.5,45.19,5.09-1.35,2.63-19.4,13.46-24.93,0,0,8.76-11.25,27.43-10.97.65,0,1.26.06,1.85.13,38.34,3.16,19.26,30.67-6.83,35.76,6.23.29,13.94-2.53,18.93-5.55,2.59-.85,6.12,2.98,2.02-2.41l5.98.97-2.99-3.97c4.61.31,1.57-4.9,8.97-3.01l-2.97-2.47,3.97-1.53c-3.44-3.17-.42-3.13,1.99-4.97l-2.98-.51,5.97-3.51c-5.93-2.29,5.01-7.06,2.99-8.96Z"/>
  <path class="st2" d="M555.55,249.72c-18.66-.28-27.43,10.97-27.43,10.97-.15,39.5,52.81,18.31,27.43-10.97ZM537.32,255.89c4.24-1.51,7.37,2.19,3.85,4.88-5.11,3.91-9.73-2.79-3.85-4.88ZM539.86,271.9h0c6.84,3.57,12.91.4,13.72-7.21l2,2.99,3.97-2.99c4.48,17.41-26.23,21.42-26.95,7.39-.47-9.07,6.08-.81,7.27-.19Z"/>
</svg>