<?xml version="1.0" encoding="UTF-8"?>
<svg xmlns="http://www.w3.org/2000/svg" xmlns:xlink="http://www.w3.org/1999/xlink" style="display:none">
  <symbol id="arrow-left" viewBox="0 0 256 256">
    <path d="M224,128a8,8,0,0,1-8,8H59.31l58.35,58.34a8,8,0,0,1-11.32,11.32l-72-72a8,8,0,0,1,0-11.32l72-72a8,8,0,0,1,11.32,11.32L59.31,120H216A8,8,0,0,1,224,128Z"/>
  </symbol>

  <symbol id="arrow-right" viewBox="0 0 256 256">
    <path d="M221.66,133.66l-72,72a8,8,0,0,1-11.32-11.32L196.69,136H40a8,8,0,0,1,0-16H196.69L138.34,61.66a8,8,0,0,1,11.32-11.32l72,72A8,8,0,0,1,221.66,133.66Z"/>
  </symbol>

  <symbol id="arrow-up" viewBox="0 0 256 256">
    <path d="M205.66,117.66a8,8,0,0,1-11.32,0L136,59.31V216a8,8,0,0,1-16,0V59.31L61.66,117.66a8,8,0,0,1-11.32-11.32l72-72a8,8,0,0,1,11.32,0l72,72A8,8,0,0,1,205.66,117.66Z"/>
  </symbol>

  <symbol id="arrow-down" viewBox="0 0 256 256">
    <path d="M205.66,149.66l-72,72a8,8,0,0,1-11.32,0l-72-72a8,8,0,0,1,11.32-11.32L120,196.69V40a8,8,0,0,1,16,0V196.69l58.34-58.35a8,8,0,0,1,11.32,11.32Z"/>
  </symbol>

  <symbol id="caret-left" viewBox="0 0 256 256">
    <path d="M165.66,202.34a8,8,0,0,1-11.32,11.32l-80-80a8,8,0,0,1,0-11.32l80-80a8,8,0,0,1,11.32,11.32L91.31,128Z"/>
  </symbol>

  <symbol id="caret-right" viewBox="0 0 256 256">
    <path d="M181.66,133.66l-80,80a8,8,0,0,1-11.32-11.32L164.69,128,90.34,53.66a8,8,0,0,1,11.32-11.32l80,80A8,8,0,0,1,181.66,133.66Z"/>
  </symbol>

  <symbol id="caret-down" viewBox="0 0 256 256">
    <path d="M213.66,101.66l-80,80a8,8,0,0,1-11.32,0l-80-80A8,8,0,0,1,53.66,90.34L128,164.69l74.34-74.35a8,8,0,0,1,11.32,11.32Z"/>
  </symbol>

  <symbol id="caret-up" viewBox="0 0 256 256">
    <path d="M213.66,165.66a8,8,0,0,1-11.32,0L128,91.31,53.66,165.66a8,8,0,0,1-11.32-11.32l80-80a8,8,0,0,1,11.32,0l80,80A8,8,0,0,1,213.66,165.66Z"/>
  </symbol>

  <symbol id="x" viewBox="0 0 256 256">
    <path d="M205.66,194.34a8,8,0,0,1-11.32,11.32L128,139.31,61.66,205.66a8,8,0,0,1-11.32-11.32L116.69,128,50.34,61.66A8,8,0,0,1,61.66,50.34L128,116.69l66.34-66.35a8,8,0,0,1,11.32,11.32L139.31,128Z"/>
  </symbol>

  <symbol id="list" viewBox="0 0 256 256">
    <path d="M224,128a8,8,0,0,1-8,8H40a8,8,0,0,1,0-16H216A8,8,0,0,1,224,128ZM40,72H216a8,8,0,0,0,0-16H40a8,8,0,0,0,0,16ZM216,184H40a8,8,0,0,0,0,16H216a8,8,0,0,0,0-16Z"/>
  </symbol>

  <symbol id="dots-three-vertical" viewBox="0 0 256 256">
    <path d="M140,128a12,12,0,1,1-12-12A12,12,0,0,1,140,128ZM128,72a12,12,0,1,0-12-12A12,12,0,0,0,128,72Zm0,112a12,12,0,1,0,12,12A12,12,0,0,0,128,184Z"/>
  </symbol>

  <symbol id="dots-three" viewBox="0 0 256 256">
    <path d="M140,128a12,12,0,1,1-12-12A12,12,0,0,1,140,128Zm56-12a12,12,0,1,0,12,12A12,12,0,0,0,196,116ZM60,116a12,12,0,1,0,12,12A12,12,0,0,0,60,116Z"/>
  </symbol>

  <symbol id="house" viewBox="0 0 256 256">
    <path d="M219.31,108.68l-80-80a16,16,0,0,0-22.62,0l-80,80A15.87,15.87,0,0,0,32,120v96a8,8,0,0,0,8,8h64a8,8,0,0,0,8-8V160h32v56a8,8,0,0,0,8,8h64a8,8,0,0,0,8-8V120A15.87,15.87,0,0,0,219.31,108.68ZM208,208H160V152a8,8,0,0,0-8-8H104a8,8,0,0,0-8,8v56H48V120l80-80,80,80Z"/>
  </symbol>

  <symbol id="gear" viewBox="0 0 256 256">
    <path d="M128,80a48,48,0,1,0,48,48A48.05,48.05,0,0,0,128,80Zm0,80a32,32,0,1,1,32-32A32,32,0,0,1,128,160Zm88-29.84q.06-2.16,0-4.32l14.92-18.64a8,8,0,0,0,1.48-7.06,107.21,107.21,0,0,0-10.88-26.25,8,8,0,0,0-6-3.93l-23.72-2.64q-1.48-1.56-3-3L186,40.54a8,8,0,0,0-3.94-6,107.71,107.71,0,0,0-26.25-10.87,8,8,0,0,0-7.06,1.49L130.16,40Q128,40,125.84,40L107.2,25.11a8,8,0,0,0-7.06-1.48A107.6,107.6,0,0,0,73.89,34.51a8,8,0,0,0-3.93,6L67.32,64.27q-1.56,1.49-3,3L40.54,70a8,8,0,0,0-6,3.94,107.71,107.71,0,0,0-10.87,26.25,8,8,0,0,0,1.49,7.06L40,125.84Q40,128,40,130.16L25.11,148.8a8,8,0,0,0-1.48,7.06,107.21,107.21,0,0,0,10.88,26.25,8,8,0,0,0,6,3.93l23.72,2.64q1.49,1.56,3,3L70,215.46a8,8,0,0,0,3.94,6,107.71,107.71,0,0,0,26.25,10.87,8,8,0,0,0,7.06-1.49L125.84,216q2.16.06,4.32,0l18.64,14.92a8,8,0,0,0,7.06,1.48,107.21,107.21,0,0,0,26.25-10.88,8,8,0,0,0,3.93-6l2.64-23.72q1.56-1.48,3-3L215.46,186a8,8,0,0,0,6-3.94,107.71,107.71,0,0,0,10.87-26.25,8,8,0,0,0-1.49-7.06Zm-16.1-6.5a73.93,73.93,0,0,1,0,8.68,8,8,0,0,0,1.74,5.48l14.19,17.73a91.57,91.57,0,0,1-6.23,15L187,173.11a8,8,0,0,0-5.1,2.64,74.11,74.11,0,0,1-6.14,6.14,8,8,0,0,0-2.64,5.1l-2.51,22.58a91.32,91.32,0,0,1-15,6.23l-17.74-14.19a8,8,0,0,0-5-1.75h-.48a73.93,73.93,0,0,1-8.68,0,8,8,0,0,0-5.48,1.74L100.45,215.8a91.57,91.57,0,0,1-15-6.23L82.89,187a8,8,0,0,0-2.64-5.1,74.11,74.11,0,0,1-6.14-6.14,8,8,0,0,0-5.1-2.64L46.43,170.6a91.32,91.32,0,0,1-6.23-15l14.19-17.74a8,8,0,0,0,1.74-5.48,73.93,73.93,0,0,1,0-8.68,8,8,0,0,0-1.74-5.48L40.2,100.45a91.57,91.57,0,0,1,6.23-15L69,82.89a8,8,0,0,0,5.1-2.64,74.11,74.11,0,0,1,6.14-6.14A8,8,0,0,0,82.89,69L85.4,46.43a91.32,91.32,0,0,1,15-6.23l17.74,14.19a8,8,0,0,0,5.48,1.74,73.93,73.93,0,0,1,8.68,0,8,8,0,0,0,5.48-1.74L155.55,40.2a91.57,91.57,0,0,1,15,6.23L173.11,69a8,8,0,0,0,2.64,5.1,74.11,74.11,0,0,1,6.14,6.14,8,8,0,0,0,5.1,2.64l22.58,2.51a91.32,91.32,0,0,1,6.23,15l-14.19,17.74A8,8,0,0,0,199.87,123.66Z"/>
  </symbol>

  <symbol id="magnifying-glass" viewBox="0 0 256 256">
    <path d="M229.66,218.34l-50.07-50.06a88.11,88.11,0,1,0-11.31,11.31l50.06,50.07a8,8,0,0,0,11.32-11.32ZM40,112a72,72,0,1,1,72,72A72.08,72.08,0,0,1,40,112Z"/>
  </symbol>

  <symbol id="funnel" viewBox="0 0 256 256">
    <path d="M230.6,49.53A15.81,15.81,0,0,0,216,40H40A16,16,0,0,0,28.19,66.76l.08.09L96,139.17V216a16,16,0,0,0,24.87,13.32l32-21.34A16,16,0,0,0,160,194.66V139.17l67.74-72.32.08-.09A15.8,15.8,0,0,0,230.6,49.53ZM40,56h0Zm106.18,74.58A8,8,0,0,0,144,136v58.66L112,216V136a8,8,0,0,0-2.16-5.47L40,56H216Z"/>
  </symbol>

  <symbol id="plus" viewBox="0 0 256 256">
    <path d="M224,128a8,8,0,0,1-8,8H136v80a8,8,0,0,1-16,0V136H40a8,8,0,0,1,0-16h80V40a8,8,0,0,1,16,0v80h80A8,8,0,0,1,224,128Z"/>
  </symbol>

  <symbol id="minus" viewBox="0 0 256 256">
    <path d="M224,128a8,8,0,0,1-8,8H40a8,8,0,0,1,0-16H216A8,8,0,0,1,224,128Z"/>
  </symbol>

  <symbol id="check" viewBox="0 0 256 256">
    <path d="M229.66,77.66l-128,128a8,8,0,0,1-11.32,0l-56-56a8,8,0,0,1,11.32-11.32L96,188.69,218.34,66.34a8,8,0,0,1,11.32,11.32Z"/>
  </symbol>

  <symbol id="trash" viewBox="0 0 256 256">
    <path d="M216,48H176V40a24,24,0,0,0-24-24H104A24,24,0,0,0,80,40v8H40a8,8,0,0,0,0,16h8V208a16,16,0,0,0,16,16H192a16,16,0,0,0,16-16V64h8a8,8,0,0,0,0-16ZM96,40a8,8,0,0,1,8-8h48a8,8,0,0,1,8,8v8H96Zm96,168H64V64H192ZM112,104v64a8,8,0,0,1-16,0V104a8,8,0,0,1,16,0Zm48,0v64a8,8,0,0,1-16,0V104a8,8,0,0,1,16,0Z"/>
  </symbol>

  <symbol id="pencil" viewBox="0 0 256 256">
    <path d="M227.31,73.37,182.63,28.68a16,16,0,0,0-22.63,0L36.69,152A15.86,15.86,0,0,0,32,163.31V208a16,16,0,0,0,16,16H92.69A15.86,15.86,0,0,0,104,219.31L227.31,96a16,16,0,0,0,0-22.63ZM51.31,160,136,75.31,152.69,92,68,176.68ZM48,179.31,76.69,208H48Zm48,25.38L79.31,188,164,103.31,180.69,120Zm96-96L147.31,64l24-24L216,84.68Z"/>
  </symbol>

  <symbol id="floppy-disk" viewBox="0 0 256 256">
    <path d="M219.31,72,184,36.69A15.86,15.86,0,0,0,172.69,32H48A16,16,0,0,0,32,48V208a16,16,0,0,0,16,16H208a16,16,0,0,0,16-16V83.31A15.86,15.86,0,0,0,219.31,72ZM168,208H88V152h80Zm40,0H184V152a16,16,0,0,0-16-16H88a16,16,0,0,0-16,16v56H48V48H172.69L208,83.31ZM160,72a8,8,0,0,1-8,8H96a8,8,0,0,1,0-16h56A8,8,0,0,1,160,72Z"/>
  </symbol>

  <symbol id="copy" viewBox="0 0 256 256">
    <path d="M216,32H88a8,8,0,0,0-8,8V80H40a8,8,0,0,0-8,8V216a8,8,0,0,0,8,8H168a8,8,0,0,0,8-8V176h40a8,8,0,0,0,8-8V40A8,8,0,0,0,216,32ZM160,208H48V96H160Zm48-48H176V88a8,8,0,0,0-8-8H96V48H208Z"/>
  </symbol>

  <symbol id="download" viewBox="0 0 256 256">
    <path d="M240,136v64a16,16,0,0,1-16,16H32a16,16,0,0,1-16-16V136a16,16,0,0,1,16-16H72a8,8,0,0,1,0,16H32v64H224V136H184a8,8,0,0,1,0-16h40A16,16,0,0,1,240,136Zm-117.66-2.34a8,8,0,0,0,11.32,0l48-48a8,8,0,0,0-11.32-11.32L136,108.69V24a8,8,0,0,0-16,0v84.69L85.66,74.34A8,8,0,0,0,74.34,85.66ZM200,168a12,12,0,1,0-12,12A12,12,0,0,0,200,168Z"/>
  </symbol>

  <symbol id="upload" viewBox="0 0 256 256">
    <path d="M240,136v64a16,16,0,0,1-16,16H32a16,16,0,0,1-16-16V136a16,16,0,0,1,16-16H80a8,8,0,0,1,0,16H32v64H224V136H176a8,8,0,0,1,0-16h48A16,16,0,0,1,240,136ZM85.66,77.66,120,43.31V128a8,8,0,0,0,16,0V43.31l34.34,34.35a8,8,0,0,0,11.32-11.32l-48-48a8,8,0,0,0-11.32,0l-48,48A8,8,0,0,0,85.66,77.66ZM200,168a12,12,0,1,0-12,12A12,12,0,0,0,200,168Z"/>
  </symbol>

  <symbol id="share" viewBox="0 0 256 256">
    <path d="M229.66,109.66l-48,48a8,8,0,0,1-11.32-11.32L204.69,112H165a88,88,0,0,0-85.23,66,8,8,0,0,1-15.5-4A103.94,103.94,0,0,1,165,96h39.71L170.34,61.66a8,8,0,0,1,11.32-11.32l48,48A8,8,0,0,1,229.66,109.66ZM192,208H40V88a8,8,0,0,0-16,0V216a8,8,0,0,0,8,8H192a8,8,0,0,0,0-16Z"/>
  </symbol>

  <symbol id="link" viewBox="0 0 256 256">
    <path d="M240,88.23a54.43,54.43,0,0,1-16,37L189.25,160a54.27,54.27,0,0,1-38.63,16h-.05A54.63,54.63,0,0,1,96,119.84a8,8,0,0,1,16,.45A38.62,38.62,0,0,0,150.58,160h0a38.39,38.39,0,0,0,27.31-11.31l34.75-34.75a38.63,38.63,0,0,0-54.63-54.63l-11,11A8,8,0,0,1,135.7,59l11-11A54.65,54.65,0,0,1,224,48,54.86,54.86,0,0,1,240,88.23ZM109,185.66l-11,11A38.41,38.41,0,0,1,70.6,208h0a38.63,38.63,0,0,1-27.29-65.94L78,107.31A38.63,38.63,0,0,1,144,135.71a8,8,0,0,0,16,.45A54.86,54.86,0,0,0,144,96a54.65,54.65,0,0,0-77.27,0L32,130.75A54.62,54.62,0,0,0,70.56,224h0a54.28,54.28,0,0,0,38.64-16l11-11A8,8,0,0,0,109,185.66Z"/>
  </symbol>

  <symbol id="eye" viewBox="0 0 256 256">
    <path d="M247.31,124.76c-.35-.79-8.82-19.58-27.65-38.41C194.57,61.26,162.88,48,128,48S61.43,61.26,36.34,86.35C17.51,105.18,9,124,8.69,124.76a8,8,0,0,0,0,6.5c.35.79,8.82,19.57,27.65,38.4C61.43,194.74,93.12,208,128,208s66.57-13.26,91.66-38.34c18.83-18.83,27.3-37.61,27.65-38.4A8,8,0,0,0,247.31,124.76ZM128,192c-30.78,0-57.67-11.19-79.93-33.25A133.47,133.47,0,0,1,25,128,133.33,133.33,0,0,1,48.07,97.25C70.33,75.19,97.22,64,128,64s57.67,11.19,79.93,33.25A133.46,133.46,0,0,1,231.05,128C223.84,141.46,192.43,192,128,192Zm0-112a48,48,0,1,0,48,48A48.05,48.05,0,0,0,128,80Zm0,80a32,32,0,1,1,32-32A32,32,0,0,1,128,160Z"/>
  </symbol>

  <symbol id="eye-slash" viewBox="0 0 256 256">
    <path d="M53.92,34.62A8,8,0,1,0,42.08,45.38L61.32,66.55C25,88.84,9.38,123.2,8.69,124.76a8,8,0,0,0,0,6.5c.35.79,8.82,19.57,27.65,38.4C61.43,194.74,93.12,208,128,208a127.11,127.11,0,0,0,52.07-10.83l22,24.21a8,8,0,1,0,11.84-10.76Zm47.33,75.84,41.67,45.85a32,32,0,0,1-41.67-45.85ZM128,192c-30.78,0-57.67-11.19-79.93-33.25A133.16,133.16,0,0,1,25,128c4.69-8.79,19.66-33.39,47.35-49.38l18,19.75a48,48,0,0,0,63.66,70l14.73,16.2A112,112,0,0,1,128,192Zm6-95.43a8,8,0,0,1,3-15.72,48.16,48.16,0,0,1,38.77,42.64,8,8,0,0,1-7.22,8.71,6.39,6.39,0,0,1-.75,0,8,8,0,0,1-8-7.26A32.09,32.09,0,0,0,134,96.57Zm113.28,34.69c-.42.94-10.55,23.37-33.36,43.8a8,8,0,1,1-10.67-11.92A132.77,132.77,0,0,0,231.05,128a133.15,133.15,0,0,0-23.12-30.77C185.67,75.19,158.78,64,128,64a118.37,118.37,0,0,0-19.36,1.57A8,8,0,1,1,106,49.79,134,134,0,0,1,128,48c34.88,0,66.57,13.26,91.66,38.35,18.83,18.83,27.3,37.62,27.65,38.41A8,8,0,0,1,247.31,131.26Z"/>
  </symbol>

  <symbol id="heart" viewBox="0 0 256 256">
    <path d="M178,40c-20.65,0-38.73,8.88-50,23.89C116.73,48.88,98.65,40,78,40a62.07,62.07,0,0,0-62,62c0,70,103.79,126.66,108.21,129a8,8,0,0,0,7.58,0C136.21,228.66,240,172,240,102A62.07,62.07,0,0,0,178,40ZM128,214.8C109.74,204.16,32,155.69,32,102A46.06,46.06,0,0,1,78,56c19.45,0,35.78,10.36,42.6,27a8,8,0,0,0,14.8,0c6.82-16.67,23.15-27,42.6-27a46.06,46.06,0,0,1,46,46C224,155.61,146.24,204.15,128,214.8Z"/>
  </symbol>

  <symbol id="star" viewBox="0 0 256 256">
    <path d="M239.18,97.26A16.38,16.38,0,0,0,224.92,86l-59-4.76L143.14,26.15a16.36,16.36,0,0,0-30.27,0L90.11,81.23,31.08,86a16.46,16.46,0,0,0-9.37,28.86l45,38.83L53,211.75a16.38,16.38,0,0,0,24.5,17.82L128,198.49l50.53,31.08A16.4,16.4,0,0,0,203,211.75l-13.76-58.07,45-38.83A16.43,16.43,0,0,0,239.18,97.26Zm-15.34,5.47-48.7,42a8,8,0,0,0-2.56,7.91l14.88,62.8a.37.37,0,0,1-.17.48c-.18.14-.23.11-.38,0l-54.72-33.65a8,8,0,0,0-8.38,0L69.09,215.94c-.15.09-.19.12-.38,0a.37.37,0,0,1-.17-.48l14.88-62.8a8,8,0,0,0-2.56-7.91l-48.7-42c-.12-.1-.23-.19-.13-.5s.18-.27.33-.29l63.92-5.16A8,8,0,0,0,103,91.86l24.62-59.61c.08-.17.11-.25.35-.25s.27.08.35.25L153,91.86a8,8,0,0,0,6.75,4.92l63.92,5.16c.15,0,.24,0,.33.29S224,102.63,223.84,102.73Z"/>
  </symbol>

  <symbol id="bookmark" viewBox="0 0 256 256">
    <path d="M184,32H72A16,16,0,0,0,56,48V224a8,8,0,0,0,12.24,6.78L128,193.43l59.77,37.35A8,8,0,0,0,200,224V48A16,16,0,0,0,184,32Zm0,16V161.57l-51.77-32.35a8,8,0,0,0-8.48,0L72,161.56V48ZM132.23,177.22a8,8,0,0,0-8.48,0L72,209.57V180.43l56-35,56,35v29.14Z"/>
  </symbol>

  <symbol id="envelope" viewBox="0 0 256 256">
    <path d="M224,48H32a8,8,0,0,0-8,8V192a16,16,0,0,0,16,16H216a16,16,0,0,0,16-16V56A8,8,0,0,0,224,48Zm-96,85.15L52.57,64H203.43ZM98.71,128,40,181.81V74.19Zm11.84,10.85,12,11.05a8,8,0,0,0,10.82,0l12-11.05,58,53.15H52.57ZM157.29,128,216,74.18V181.82Z"/>
  </symbol>

  <symbol id="bell" viewBox="0 0 256 256">
    <path d="M221.8,175.94C216.25,166.38,208,139.33,208,104a80,80,0,1,0-160,0c0,35.34-8.26,62.38-13.81,71.94A16,16,0,0,0,48,200H88.81a40,40,0,0,0,78.38,0H208a16,16,0,0,0,13.8-24.06ZM128,216a24,24,0,0,1-22.62-16h45.24A24,24,0,0,1,128,216ZM48,184c7.7-13.24,16-43.92,16-80a64,64,0,1,1,128,0c0,36.05,8.28,66.73,16,80Z"/>
  </symbol>

  <symbol id="chat-circle" viewBox="0 0 256 256">
    <path d="M128,24A104,104,0,0,0,36.18,176.88L24.83,210.93a16,16,0,0,0,20.24,20.24l34.05-11.35A104,104,0,1,0,128,24Zm0,192a87.87,87.87,0,0,1-44.06-11.81,8,8,0,0,0-6.54-.67L40,216,52.47,178.6a8,8,0,0,0-.66-6.54A88,88,0,1,1,128,216Z"/>
  </symbol>

  <symbol id="phone" viewBox="0 0 256 256">
    <path d="M222.37,158.46l-47.11-21.11-.13-.06a16,16,0,0,0-15.17,1.4,8.12,8.12,0,0,0-.75.56L134.87,160c-15.42-7.49-31.34-23.29-38.83-38.51l20.78-24.71c.2-.25.39-.5.57-.77a16,16,0,0,0,1.32-15.06l0-.12L97.54,33.64a16,16,0,0,0-16.62-9.52A56.26,56.26,0,0,0,32,80c0,79.4,64.6,144,144,144a56.26,56.26,0,0,0,55.88-48.92A16,16,0,0,0,222.37,158.46ZM176,208A128.14,128.14,0,0,1,48,80,40.2,40.2,0,0,1,82.87,40a.61.61,0,0,0,0,.12l21,47L83.2,111.86a6.13,6.13,0,0,0-.57.77,16,16,0,0,0-1,15.7c9.06,18.53,27.73,37.06,46.46,46.11a16,16,0,0,0,15.75-1.14,8.44,8.44,0,0,0,.74-.56L168.89,152l47,21.05h0s.08,0,.11,0A40.21,40.21,0,0,1,176,208Z"/>
  </symbol>

  <symbol id="paper-plane-tilt" viewBox="0 0 256 256">
    <path d="M227.32,28.68a16,16,0,0,0-15.66-4.08l-.15,0L19.57,82.84a16,16,0,0,0-2.49,29.8L102,154l41.3,84.87A15.86,15.86,0,0,0,157.74,248q.69,0,1.38-.06a15.88,15.88,0,0,0,14-11.51l58.2-191.94c0-.05,0-.1,0-.15A16,16,0,0,0,227.32,28.68ZM157.83,231.85l-.05.14,0-.07-40.06-82.3,48-48a8,8,0,0,0-11.31-11.31l-48,48L24.08,98.25l-.07,0,.14,0L216,40Z"/>
  </symbol>

  <symbol id="user" viewBox="0 0 256 256">
    <path d="M230.92,212c-15.23-26.33-38.7-45.21-66.09-54.16a72,72,0,1,0-73.66,0C63.78,166.78,40.31,185.66,25.08,212a8,8,0,1,0,13.85,8c18.84-32.56,52.14-52,89.07-52s70.23,19.44,89.07,52a8,8,0,1,0,13.85-8ZM72,96a56,56,0,1,1,56,56A56.06,56.06,0,0,1,72,96Z"/>
  </symbol>

  <symbol id="users" viewBox="0 0 256 256">
    <path d="M117.25,157.92a60,60,0,1,0-66.5,0A95.83,95.83,0,0,0,3.53,195.63a8,8,0,1,0,13.4,8.74,80,80,0,0,1,134.14,0,8,8,0,0,0,13.4-8.74A95.83,95.83,0,0,0,117.25,157.92ZM40,108a44,44,0,1,1,44,44A44.05,44.05,0,0,1,40,108Zm210.14,98.7a8,8,0,0,1-11.07-2.33A79.83,79.83,0,0,0,172,168a8,8,0,0,1,0-16,44,44,0,1,0-16.34-84.87,8,8,0,1,1-5.94-14.85,60,60,0,0,1,55.53,105.64,95.83,95.83,0,0,1,47.22,37.71A8,8,0,0,1,250.14,206.7Z"/>
  </symbol>

  <symbol id="at" viewBox="0 0 256 256">
    <path d="M128,24a104,104,0,0,0,0,208c21.51,0,44.1-6.48,60.43-17.33a8,8,0,0,0-8.86-13.33C166,210.38,146.21,216,128,216a88,88,0,1,1,88-88c0,26.45-10.88,32-20,32s-20-5.55-20-32V88a8,8,0,0,0-16,0v4.26a48,48,0,1,0,5.93,65.1c6,12,16.35,18.64,30.07,18.64,22.54,0,36-17.94,36-48A104.11,104.11,0,0,0,128,24Zm0,136a32,32,0,1,1,32-32A32,32,0,0,1,128,160Z"/>
  </symbol>

  <symbol id="image" viewBox="0 0 256 256">
    <path d="M216,40H40A16,16,0,0,0,24,56V200a16,16,0,0,0,16,16H216a16,16,0,0,0,16-16V56A16,16,0,0,0,216,40Zm0,16V158.75l-26.07-26.06a16,16,0,0,0-22.63,0l-20,20-44-44a16,16,0,0,0-22.62,0L40,149.37V56ZM40,172l52-52,80,80H40Zm176,28H194.63l-36-36,20-20L216,181.38V200ZM144,100a12,12,0,1,1,12,12A12,12,0,0,1,144,100Z"/>
  </symbol>

  <symbol id="file" viewBox="0 0 256 256">
    <path d="M213.66,82.34l-56-56A8,8,0,0,0,152,24H56A16,16,0,0,0,40,40V216a16,16,0,0,0,16,16H200a16,16,0,0,0,16-16V88A8,8,0,0,0,213.66,82.34ZM160,51.31,188.69,80H160ZM200,216H56V40h88V88a8,8,0,0,0,8,8h48V216Z"/>
  </symbol>

  <symbol id="file-text" viewBox="0 0 256 256">
    <path d="M213.66,82.34l-56-56A8,8,0,0,0,152,24H56A16,16,0,0,0,40,40V216a16,16,0,0,0,16,16H200a16,16,0,0,0,16-16V88A8,8,0,0,0,213.66,82.34ZM160,51.31,188.69,80H160ZM200,216H56V40h88V88a8,8,0,0,0,8,8h48V216Zm-32-80a8,8,0,0,1-8,8H96a8,8,0,0,1,0-16h64A8,8,0,0,1,168,136Zm0,32a8,8,0,0,1-8,8H96a8,8,0,0,1,0-16h64A8,8,0,0,1,168,168Z"/>
  </symbol>

  <symbol id="folder" viewBox="0 0 256 256">
    <path d="M216,72H131.31L104,44.69A15.86,15.86,0,0,0,92.69,40H40A16,16,0,0,0,24,56V200.62A15.4,15.4,0,0,0,39.38,216H216.89A15.13,15.13,0,0,0,232,200.89V88A16,16,0,0,0,216,72ZM40,56H92.69l16,16H40ZM216,200H40V88H216Z"/>
  </symbol>

  <symbol id="folder-open" viewBox="0 0 256 256">
    <path d="M245,110.64A16,16,0,0,0,232,104H216V88a16,16,0,0,0-16-16H130.67L102.94,51.2a16.14,16.14,0,0,0-9.6-3.2H40A16,16,0,0,0,24,64V208h0a8,8,0,0,0,8,8H211.1a8,8,0,0,0,7.59-5.47l28.49-85.47A16.05,16.05,0,0,0,245,110.64ZM93.34,64,123.2,86.4A8,8,0,0,0,128,88h72v16H69.77a16,16,0,0,0-15.18,10.94L40,158.7V64Zm112,136H43.1l26.67-80H232Z"/>
  </symbol>

  <symbol id="camera" viewBox="0 0 256 256">
    <path d="M208,56H180.28L166.65,35.56A8,8,0,0,0,160,32H96a8,8,0,0,0-6.65,3.56L75.71,56H48A24,24,0,0,0,24,80V192a24,24,0,0,0,24,24H208a24,24,0,0,0,24-24V80A24,24,0,0,0,208,56Zm8,136a8,8,0,0,1-8,8H48a8,8,0,0,1-8-8V80a8,8,0,0,1,8-8H80a8,8,0,0,0,6.66-3.56L100.28,48h55.43l13.63,20.44A8,8,0,0,0,176,72h32a8,8,0,0,1,8,8ZM128,88a44,44,0,1,0,44,44A44.05,44.05,0,0,0,128,88Zm0,72a28,28,0,1,1,28-28A28,28,0,0,1,128,160Z"/>
  </symbol>

  <symbol id="video-camera" viewBox="0 0 256 256">
    <path d="M251.77,73a8,8,0,0,0-8.21.39L208,97.05V72a16,16,0,0,0-16-16H32A16,16,0,0,0,16,72V184a16,16,0,0,0,16,16H192a16,16,0,0,0,16-16V159l35.56,23.71A8,8,0,0,0,248,184a8,8,0,0,0,8-8V80A8,8,0,0,0,251.77,73ZM192,184H32V72H192V184Zm48-22.95-32-21.33V116.28L240,95Z"/>
  </symbol>

  <symbol id="play" viewBox="0 0 256 256">
    <path d="M232.4,114.49,88.32,26.35a16,16,0,0,0-16.2-.3A15.86,15.86,0,0,0,64,39.87V216.13A15.94,15.94,0,0,0,80,232a16.07,16.07,0,0,0,8.36-2.35L232.4,141.51a15.81,15.81,0,0,0,0-27ZM80,215.94V40l143.83,88Z"/>
  </symbol>

  <symbol id="pause" viewBox="0 0 256 256">
    <path d="M200,32H160a16,16,0,0,0-16,16V208a16,16,0,0,0,16,16h40a16,16,0,0,0,16-16V48A16,16,0,0,0,200,32Zm0,176H160V48h40ZM96,32H56A16,16,0,0,0,40,48V208a16,16,0,0,0,16,16H96a16,16,0,0,0,16-16V48A16,16,0,0,0,96,32Zm0,176H56V48H96Z"/>
  </symbol>

  <symbol id="microphone" viewBox="0 0 256 256">
    <path d="M128,176a48.05,48.05,0,0,0,48-48V64a48,48,0,0,0-96,0v64A48.05,48.05,0,0,0,128,176ZM96,64a32,32,0,0,1,64,0v64a32,32,0,0,1-64,0Zm40,143.6V240a8,8,0,0,1-16,0V207.6A80.11,80.11,0,0,1,48,128a8,8,0,0,1,16,0,64,64,0,0,0,128,0,8,8,0,0,1,16,0A80.11,80.11,0,0,1,136,207.6Z"/>
  </symbol>

  <symbol id="info" viewBox="0 0 256 256">
    <path d="M128,24A104,104,0,1,0,232,128,104.11,104.11,0,0,0,128,24Zm0,192a88,88,0,1,1,88-88A88.1,88.1,0,0,1,128,216Zm16-40a8,8,0,0,1-8,8,16,16,0,0,1-16-16V128a8,8,0,0,1,0-16,16,16,0,0,1,16,16v40A8,8,0,0,1,144,176ZM112,84a12,12,0,1,1,12,12A12,12,0,0,1,112,84Z"/>
  </symbol>

  <symbol id="warning" viewBox="0 0 256 256">
    <path d="M236.8,188.09,149.35,36.22h0a24.76,24.76,0,0,0-42.7,0L19.2,188.09a23.51,23.51,0,0,0,0,23.72A24.35,24.35,0,0,0,40.55,224h174.9a24.35,24.35,0,0,0,21.33-12.19A23.51,23.51,0,0,0,236.8,188.09ZM222.93,203.8a8.5,8.5,0,0,1-7.48,4.2H40.55a8.5,8.5,0,0,1-7.48-4.2,7.59,7.59,0,0,1,0-7.72L120.52,44.21a8.75,8.75,0,0,1,15,0l87.45,151.87A7.59,7.59,0,0,1,222.93,203.8ZM120,144V104a8,8,0,0,1,16,0v40a8,8,0,0,1-16,0Zm20,36a12,12,0,1,1-12-12A12,12,0,0,1,140,180Z"/>
  </symbol>

  <symbol id="check-circle" viewBox="0 0 256 256">
    <path d="M173.66,98.34a8,8,0,0,1,0,11.32l-56,56a8,8,0,0,1-11.32,0l-24-24a8,8,0,0,1,11.32-11.32L112,148.69l50.34-50.35A8,8,0,0,1,173.66,98.34ZM232,128A104,104,0,1,1,128,24,104.11,104.11,0,0,1,232,128Zm-16,0a88,88,0,1,0-88,88A88.1,88.1,0,0,0,216,128Z"/>
  </symbol>

  <symbol id="x-circle" viewBox="0 0 256 256">
    <path d="M165.66,101.66,139.31,128l26.35,26.34a8,8,0,0,1-11.32,11.32L128,139.31l-26.34,26.35a8,8,0,0,1-11.32-11.32L116.69,128,90.34,101.66a8,8,0,0,1,11.32-11.32L128,116.69l26.34-26.35a8,8,0,0,1,11.32,11.32ZM232,128A104,104,0,1,1,128,24,104.11,104.11,0,0,1,232,128Zm-16,0a88,88,0,1,0-88,88A88.1,88.1,0,0,0,216,128Z"/>
  </symbol>

  <symbol id="question" viewBox="0 0 256 256">
    <path d="M140,180a12,12,0,1,1-12-12A12,12,0,0,1,140,180ZM128,72c-22.06,0-40,16.15-40,36v4a8,8,0,0,0,16,0v-4c0-11,10.77-20,24-20s24,9,24,20-10.77,20-24,20a8,8,0,0,0-8,8v8a8,8,0,0,0,16,0v-.72c18.24-3.35,32-17.9,32-35.28C168,88.15,150.06,72,128,72Zm104,56A104,104,0,1,1,128,24,104.11,104.11,0,0,1,232,128Zm-16,0a88,88,0,1,0-88,88A88.1,88.1,0,0,0,216,128Z"/>
  </symbol>

  <symbol id="shield-check" viewBox="0 0 256 256">
    <path d="M208,40H48A16,16,0,0,0,32,56v56c0,52.72,25.52,84.67,46.93,102.19,23.06,18.86,46,25.26,47,25.53a8,8,0,0,0,4.2,0c1-.27,23.91-6.67,47-25.53C198.48,196.67,224,164.72,224,112V56A16,16,0,0,0,208,40Zm0,72c0,37.07-13.66,67.16-40.6,89.42A129.3,129.3,0,0,1,128,223.62a128.25,128.25,0,0,1-38.92-21.81C61.82,179.51,48,149.3,48,112l0-56,160,0ZM82.34,141.66a8,8,0,0,1,11.32-11.32L112,148.69l50.34-50.35a8,8,0,0,1,11.32,11.32l-56,56a8,8,0,0,1-11.32,0Z"/>
  </symbol>

  <symbol id="shield-warning" viewBox="0 0 256 256">
    <path d="M120,136V96a8,8,0,0,1,16,0v40a8,8,0,0,1-16,0Zm8,48a12,12,0,1,0-12-12A12,12,0,0,0,128,184ZM224,56v56c0,52.72-25.52,84.67-46.93,102.19-23.06,18.86-46,25.27-47,25.53a8,8,0,0,1-4.2,0c-1-.26-23.91-6.67-47-25.53C57.52,196.67,32,164.72,32,112V56A16,16,0,0,1,48,40H208A16,16,0,0,1,224,56Zm-16,0L48,56l0,56c0,37.3,13.82,67.51,41.07,89.81A128.25,128.25,0,0,0,128,223.62a129.3,129.3,0,0,0,39.41-22.2C194.34,179.16,208,149.07,208,112Z"/>
  </symbol>

  <symbol id="lock" viewBox="0 0 256 256">
    <path d="M208,80H176V56a48,48,0,0,0-96,0V80H48A16,16,0,0,0,32,96V208a16,16,0,0,0,16,16H208a16,16,0,0,0,16-16V96A16,16,0,0,0,208,80ZM96,56a32,32,0,0,1,64,0V80H96ZM208,208H48V96H208V208Zm-68-56a12,12,0,1,1-12-12A12,12,0,0,1,140,152Z"/>
  </symbol>

  <symbol id="lock-open" viewBox="0 0 256 256">
    <path d="M208,80H96V56a32,32,0,0,1,32-32c15.37,0,29.2,11,32.16,25.59a8,8,0,0,0,15.68-3.18C171.32,24.15,151.2,8,128,8A48.05,48.05,0,0,0,80,56V80H48A16,16,0,0,0,32,96V208a16,16,0,0,0,16,16H208a16,16,0,0,0,16-16V96A16,16,0,0,0,208,80Zm0,128H48V96H208V208Zm-68-56a12,12,0,1,1-12-12A12,12,0,0,1,140,152Z"/>
  </symbol>

  <symbol id="calendar" viewBox="0 0 256 256">
    <path d="M208,32H184V24a8,8,0,0,0-16,0v8H88V24a8,8,0,0,0-16,0v8H48A16,16,0,0,0,32,48V208a16,16,0,0,0,16,16H208a16,16,0,0,0,16-16V48A16,16,0,0,0,208,32ZM72,48v8a8,8,0,0,0,16,0V48h80v8a8,8,0,0,0,16,0V48h24V80H48V48ZM208,208H48V96H208V208Zm-96-88v64a8,8,0,0,1-16,0V132.94l-4.42,2.22a8,8,0,0,1-7.16-14.32l16-8A8,8,0,0,1,112,120Zm59.16,30.45L152,176h16a8,8,0,0,1,0,16H136a8,8,0,0,1-6.4-12.8l28.78-38.37A8,8,0,1,0,145.07,132a8,8,0,1,1-13.85-8A24,24,0,0,1,176,136,23.76,23.76,0,0,1,171.16,150.45Z"/>
  </symbol>

  <symbol id="clock" viewBox="0 0 256 256">
    <path d="M128,24A104,104,0,1,0,232,128,104.11,104.11,0,0,0,128,24Zm0,192a88,88,0,1,1,88-88A88.1,88.1,0,0,1,128,216Zm64-88a8,8,0,0,1-8,8H128a8,8,0,0,1-8-8V72a8,8,0,0,1,16,0v48h48A8,8,0,0,1,192,128Z"/>
  </symbol>

  <symbol id="timer" viewBox="0 0 256 256">
    <path d="M128,40a96,96,0,1,0,96,96A96.11,96.11,0,0,0,128,40Zm0,176a80,80,0,1,1,80-80A80.09,80.09,0,0,1,128,216ZM173.66,90.34a8,8,0,0,1,0,11.32l-40,40a8,8,0,0,1-11.32-11.32l40-40A8,8,0,0,1,173.66,90.34ZM96,16a8,8,0,0,1,8-8h48a8,8,0,0,1,0,16H104A8,8,0,0,1,96,16Z"/>
  </symbol>

  <symbol id="hourglass" viewBox="0 0 256 256">
    <path d="M200,75.64V40a16,16,0,0,0-16-16H72A16,16,0,0,0,56,40V76a16.07,16.07,0,0,0,6.4,12.8L114.67,128,62.4,167.2A16.07,16.07,0,0,0,56,180v36a16,16,0,0,0,16,16H184a16,16,0,0,0,16-16V180.36a16.09,16.09,0,0,0-6.35-12.77L141.27,128l52.38-39.6A16.05,16.05,0,0,0,200,75.64ZM184,216H72V180l56-42,56,42.35Zm0-140.36L128,118,72,76V40H184Z"/>
  </symbol>

  <symbol id="shopping-cart" viewBox="0 0 256 256">
    <path d="M230.14,58.87A8,8,0,0,0,224,56H62.68L56.6,22.57A8,8,0,0,0,48.73,16H24a8,8,0,0,0,0,16h18L67.56,172.29a24,24,0,0,0,5.33,11.27,28,28,0,1,0,44.4,8.44h45.42A27.75,27.75,0,0,0,160,204a28,28,0,1,0,28-28H91.17a8,8,0,0,1-7.87-6.57L80.13,152h116a24,24,0,0,0,23.61-19.71l12.16-66.86A8,8,0,0,0,230.14,58.87ZM104,204a12,12,0,1,1-12-12A12,12,0,0,1,104,204Zm96,0a12,12,0,1,1-12-12A12,12,0,0,1,200,204Zm4-74.57A8,8,0,0,1,196.1,136H77.22L65.59,72H214.41Z"/>
  </symbol>

  <symbol id="credit-card" viewBox="0 0 256 256">
    <path d="M224,48H32A16,16,0,0,0,16,64V192a16,16,0,0,0,16,16H224a16,16,0,0,0,16-16V64A16,16,0,0,0,224,48Zm0,16V88H32V64Zm0,128H32V104H224v88Zm-16-24a8,8,0,0,1-8,8H168a8,8,0,0,1,0-16h32A8,8,0,0,1,208,168Zm-64,0a8,8,0,0,1-8,8H120a8,8,0,0,1,0-16h16A8,8,0,0,1,144,168Z"/>
  </symbol>

  <symbol id="currency-dollar" viewBox="0 0 256 256">
    <path d="M152,120H136V56h8a32,32,0,0,1,32,32,8,8,0,0,0,16,0,48.05,48.05,0,0,0-48-48h-8V24a8,8,0,0,0-16,0V40h-8a48,48,0,0,0,0,96h8v64H104a32,32,0,0,1-32-32,8,8,0,0,0-16,0,48.05,48.05,0,0,0,48,48h16v16a8,8,0,0,0,16,0V216h16a48,48,0,0,0,0-96Zm-40,0a32,32,0,0,1,0-64h8v64Zm40,80H136V136h16a32,32,0,0,1,0,64Z"/>
  </symbol>

  <symbol id="tag" viewBox="0 0 256 256">
    <path d="M243.31,136,144,36.69A15.86,15.86,0,0,0,132.69,32H40a8,8,0,0,0-8,8v92.69A15.86,15.86,0,0,0,36.69,144L136,243.31a16,16,0,0,0,22.63,0l84.68-84.68a16,16,0,0,0,0-22.63Zm-96,96L48,132.69V48h84.69L232,147.31ZM96,84A12,12,0,1,1,84,72,12,12,0,0,1,96,84Z"/>
  </symbol>

  <symbol id="receipt" viewBox="0 0 256 256">
    <path d="M72,104a8,8,0,0,1,8-8h96a8,8,0,0,1,0,16H80A8,8,0,0,1,72,104Zm8,40h96a8,8,0,0,0,0-16H80a8,8,0,0,0,0,16ZM232,56V208a8,8,0,0,1-11.58,7.15L192,200.94l-28.42,14.21a8,8,0,0,1-7.16,0L128,200.94,99.58,215.15a8,8,0,0,1-7.16,0L64,200.94,35.58,215.15A8,8,0,0,1,24,208V56A16,16,0,0,1,40,40H216A16,16,0,0,1,232,56Zm-16,0H40V195.06l20.42-10.22a8,8,0,0,1,7.16,0L96,199.06l28.42-14.22a8,8,0,0,1,7.16,0L160,199.06l28.42-14.22a8,8,0,0,1,7.16,0L216,195.06Z"/>
  </symbol>

  <symbol id="storefront" viewBox="0 0 256 256">
    <path d="M232,96a7.89,7.89,0,0,0-.3-2.2L217.35,43.6A16.07,16.07,0,0,0,202,32H54A16.07,16.07,0,0,0,38.65,43.6L24.31,93.8A7.89,7.89,0,0,0,24,96h0v16a40,40,0,0,0,16,32v72a8,8,0,0,0,8,8H208a8,8,0,0,0,8-8V144a40,40,0,0,0,16-32V96ZM54,48H202l11.42,40H42.61Zm50,56h48v8a24,24,0,0,1-48,0Zm-16,0v8a24,24,0,0,1-35.12,21.26,7.88,7.88,0,0,0-1.82-1.06A24,24,0,0,1,40,112v-8ZM200,208H56V151.2a40.57,40.57,0,0,0,8,.8,40,40,0,0,0,32-16,40,40,0,0,0,64,0,40,40,0,0,0,32,16,40.57,40.57,0,0,0,8-.8Zm4.93-75.8a8.08,8.08,0,0,0-1.8,1.05A24,24,0,0,1,168,112v-8h48v8A24,24,0,0,1,204.93,132.2Z"/>
  </symbol>

  <symbol id="text-align-left" viewBox="0 0 256 256">
    <path d="M32,64a8,8,0,0,1,8-8H216a8,8,0,0,1,0,16H40A8,8,0,0,1,32,64Zm8,48H168a8,8,0,0,0,0-16H40a8,8,0,0,0,0,16Zm176,24H40a8,8,0,0,0,0,16H216a8,8,0,0,0,0-16Zm-48,40H40a8,8,0,0,0,0,16H168a8,8,0,0,0,0-16Z"/>
  </symbol>

  <symbol id="text-align-center" viewBox="0 0 256 256">
    <path d="M32,64a8,8,0,0,1,8-8H216a8,8,0,0,1,0,16H40A8,8,0,0,1,32,64ZM64,96a8,8,0,0,0,0,16H192a8,8,0,0,0,0-16Zm152,40H40a8,8,0,0,0,0,16H216a8,8,0,0,0,0-16Zm-24,40H64a8,8,0,0,0,0,16H192a8,8,0,0,0,0-16Z"/>
  </symbol>

  <symbol id="text-align-right" viewBox="0 0 256 256">
    <path d="M32,64a8,8,0,0,1,8-8H216a8,8,0,0,1,0,16H40A8,8,0,0,1,32,64ZM216,96H88a8,8,0,0,0,0,16H216a8,8,0,0,0,0-16Zm0,40H40a8,8,0,0,0,0,16H216a8,8,0,0,0,0-16Zm0,40H88a8,8,0,0,0,0,16H216a8,8,0,0,0,0-16Z"/>
  </symbol>

  <symbol id="text-b" viewBox="0 0 256 256">
    <path d="M178.48,115.7A44,44,0,0,0,148,40H80a8,8,0,0,0-8,8V200a8,8,0,0,0,8,8h80a48,48,0,0,0,18.48-92.3ZM88,56h60a28,28,0,0,1,0,56H88Zm72,136H88V128h72a32,32,0,0,1,0,64Z"/>
  </symbol>

  <symbol id="text-italic" viewBox="0 0 256 256">
    <path d="M200,56a8,8,0,0,1-8,8H157.77L115.1,192H144a8,8,0,0,1,0,16H64a8,8,0,0,1,0-16H98.23L140.9,64H112a8,8,0,0,1,0-16h80A8,8,0,0,1,200,56Z"/>
  </symbol>

  <symbol id="text-underline" viewBox="0 0 256 256">
    <path d="M200,224a8,8,0,0,1-8,8H64a8,8,0,0,1,0-16H192A8,8,0,0,1,200,224Zm-72-24a64.07,64.07,0,0,0,64-64V56a8,8,0,0,0-16,0v80a48,48,0,0,1-96,0V56a8,8,0,0,0-16,0v80A64.07,64.07,0,0,0,128,200Z"/>
  </symbol>

  <symbol id="list-bullets" viewBox="0 0 256 256">
    <path d="M80,64a8,8,0,0,1,8-8H216a8,8,0,0,1,0,16H88A8,8,0,0,1,80,64Zm136,56H88a8,8,0,0,0,0,16H216a8,8,0,0,0,0-16Zm0,64H88a8,8,0,0,0,0,16H216a8,8,0,0,0,0-16ZM44,52A12,12,0,1,0,56,64,12,12,0,0,0,44,52Zm0,64a12,12,0,1,0,12,12A12,12,0,0,0,44,116Zm0,64a12,12,0,1,0,12,12A12,12,0,0,0,44,180Z"/>
  </symbol>

  <symbol id="list-numbers" viewBox="0 0 256 256">
    <path d="M224,128a8,8,0,0,1-8,8H104a8,8,0,0,1,0-16H216A8,8,0,0,1,224,128ZM104,72H216a8,8,0,0,0,0-16H104a8,8,0,0,0,0,16ZM216,184H104a8,8,0,0,0,0,16H216a8,8,0,0,0,0-16ZM43.58,55.16,48,52.94V104a8,8,0,0,0,16,0V40a8,8,0,0,0-11.58-7.16l-16,8a8,8,0,0,0,7.16,14.32ZM79.77,156.72a23.73,23.73,0,0,0-9.6-15.95,24.86,24.86,0,0,0-34.11,4.7,23.63,23.63,0,0,0-3.57,6.46,8,8,0,1,0,15,5.47,7.84,7.84,0,0,1,1.18-2.13,8.76,8.76,0,0,1,12-1.59A7.91,7.91,0,0,1,63.93,159a7.64,7.64,0,0,1-1.57,5.78,1,1,0,0,0-.08.11L33.59,203.21A8,8,0,0,0,40,216H72a8,8,0,0,0,0-16H56l19.08-25.53A23.47,23.47,0,0,0,79.77,156.72Z"/>
  </symbol>

  <symbol id="cloud" viewBox="0 0 256 256">
    <path d="M160,40A88.09,88.09,0,0,0,81.29,88.67,64,64,0,1,0,72,216h88a88,88,0,0,0,0-176Zm0,160H72a48,48,0,0,1,0-96c1.1,0,2.2,0,3.29.11A88,88,0,0,0,72,128a8,8,0,0,0,16,0,72,72,0,1,1,72,72Z"/>
  </symbol>

  <symbol id="cloud-arrow-up" viewBox="0 0 256 256">
    <path d="M178.34,165.66,160,147.31V208a8,8,0,0,1-16,0V147.31l-18.34,18.35a8,8,0,0,1-11.32-11.32l32-32a8,8,0,0,1,11.32,0l32,32a8,8,0,0,1-11.32,11.32ZM160,40A88.08,88.08,0,0,0,81.29,88.68,64,64,0,1,0,72,216h40a8,8,0,0,0,0-16H72a48,48,0,0,1,0-96c1.1,0,2.2,0,3.29.12A88,88,0,0,0,72,128a8,8,0,0,0,16,0,72,72,0,1,1,100.8,66,8,8,0,0,0,3.2,15.34,7.9,7.9,0,0,0,3.2-.68A88,88,0,0,0,160,40Z"/>
  </symbol>

  <symbol id="cloud-arrow-down" viewBox="0 0 256 256">
    <path d="M248,128a87.34,87.34,0,0,1-17.6,52.81,8,8,0,1,1-12.8-9.62A71.34,71.34,0,0,0,232,128a72,72,0,0,0-144,0,8,8,0,0,1-16,0,88,88,0,0,1,3.29-23.88C74.2,104,73.1,104,72,104a48,48,0,0,0,0,96H96a8,8,0,0,1,0,16H72A64,64,0,1,1,81.29,88.68,88,88,0,0,1,248,128Zm-69.66,42.34L160,188.69V128a8,8,0,0,0-16,0v60.69l-18.34-18.35a8,8,0,0,0-11.32,11.32l32,32a8,8,0,0,0,11.32,0l32-32a8,8,0,0,0-11.32-11.32Z"/>
  </symbol>

  <symbol id="desktop" viewBox="0 0 256 256">
    <path d="M208,40H48A24,24,0,0,0,24,64V176a24,24,0,0,0,24,24h72v16H96a8,8,0,0,0,0,16h64a8,8,0,0,0,0-16H136V200h72a24,24,0,0,0,24-24V64A24,24,0,0,0,208,40ZM48,56H208a8,8,0,0,1,8,8v80H40V64A8,8,0,0,1,48,56ZM208,184H48a8,8,0,0,1-8-8V160H216v16A8,8,0,0,1,208,184Z"/>
  </symbol>

  <symbol id="device-mobile" viewBox="0 0 256 256">
    <path d="M176,16H80A24,24,0,0,0,56,40V216a24,24,0,0,0,24,24h96a24,24,0,0,0,24-24V40A24,24,0,0,0,176,16ZM72,64H184V192H72Zm8-32h96a8,8,0,0,1,8,8v8H72V40A8,8,0,0,1,80,32Zm96,192H80a8,8,0,0,1-8-8v-8H184v8A8,8,0,0,1,176,224Z"/>
  </symbol>

  <symbol id="globe" viewBox="0 0 256 256">
    <path d="M128,24h0A104,104,0,1,0,232,128,104.12,104.12,0,0,0,128,24Zm88,104a87.61,87.61,0,0,1-3.33,24H174.16a157.44,157.44,0,0,0,0-48h38.51A87.61,87.61,0,0,1,216,128ZM102,168H154a115.11,115.11,0,0,1-26,45A115.27,115.27,0,0,1,102,168Zm-3.9-16a140.84,140.84,0,0,1,0-48h59.88a140.84,140.84,0,0,1,0,48ZM40,128a87.61,87.61,0,0,1,3.33-24H81.84a157.44,157.44,0,0,0,0,48H43.33A87.61,87.61,0,0,1,40,128ZM154,88H102a115.11,115.11,0,0,1,26-45A115.27,115.27,0,0,1,154,88Zm52.33,0H170.71a135.28,135.28,0,0,0-22.3-45.6A88.29,88.29,0,0,1,206.37,88ZM107.59,42.4A135.28,135.28,0,0,0,85.29,88H49.63A88.29,88.29,0,0,1,107.59,42.4ZM49.63,168H85.29a135.28,135.28,0,0,0,22.3,45.6A88.29,88.29,0,0,1,49.63,168Zm98.78,45.6a135.28,135.28,0,0,0,22.3-45.6h35.66A88.29,88.29,0,0,1,148.41,213.6Z"/>
  </symbol>

  <symbol id="wifi-high" viewBox="0 0 256 256">
    <path d="M140,204a12,12,0,1,1-12-12A12,12,0,0,1,140,204ZM237.08,87A172,172,0,0,0,18.92,87,8,8,0,0,0,29.08,99.37a156,156,0,0,1,197.84,0A8,8,0,0,0,237.08,87ZM205,122.77a124,124,0,0,0-153.94,0A8,8,0,0,0,61,135.31a108,108,0,0,1,134.06,0,8,8,0,0,0,11.24-1.3A8,8,0,0,0,205,122.77Zm-32.26,35.76a76.05,76.05,0,0,0-89.42,0,8,8,0,0,0,9.42,12.94,60,60,0,0,1,70.58,0,8,8,0,1,0,9.42-12.94Z"/>
  </symbol>

  <symbol id="battery-charging" viewBox="0 0 256 256">
    <path d="M200,56H32A24,24,0,0,0,8,80v96a24,24,0,0,0,24,24H200a24,24,0,0,0,24-24V80A24,24,0,0,0,200,56Zm8,120a8,8,0,0,1-8,8H32a8,8,0,0,1-8-8V80a8,8,0,0,1,8-8H200a8,8,0,0,1,8,8Zm48-80v64a8,8,0,0,1-16,0V96a8,8,0,0,1,16,0ZM138.81,123.79a8,8,0,0,1,.35,7.79l-16,32a8,8,0,0,1-14.32-7.16L119.06,136H100a8,8,0,0,1-7.16-11.58l16-32a8,8,0,1,1,14.32,7.16L112.94,120H132A8,8,0,0,1,138.81,123.79Z"/>
  </symbol>

  <symbol id="sun" viewBox="0 0 256 256">
    <path d="M120,40V16a8,8,0,0,1,16,0V40a8,8,0,0,1-16,0Zm72,88a64,64,0,1,1-64-64A64.07,64.07,0,0,1,192,128Zm-16,0a48,48,0,1,0-48,48A48.05,48.05,0,0,0,176,128ZM58.34,69.66A8,8,0,0,0,69.66,58.34l-16-16A8,8,0,0,0,42.34,53.66Zm0,116.68-16,16a8,8,0,0,0,11.32,11.32l16-16a8,8,0,0,0-11.32-11.32ZM192,72a8,8,0,0,0,5.66-2.34l16-16a8,8,0,0,0-11.32-11.32l-16,16A8,8,0,0,0,192,72Zm5.66,114.34a8,8,0,0,0-11.32,11.32l16,16a8,8,0,0,0,11.32-11.32ZM48,128a8,8,0,0,0-8-8H16a8,8,0,0,0,0,16H40A8,8,0,0,0,48,128Zm80,80a8,8,0,0,0-8,8v24a8,8,0,0,0,16,0V216A8,8,0,0,0,128,208Zm112-88H216a8,8,0,0,0,0,16h24a8,8,0,0,0,0-16Z"/>
  </symbol>

  <symbol id="moon" viewBox="0 0 256 256">
    <path d="M233.54,142.23a8,8,0,0,0-8-2,88.08,88.08,0,0,1-109.8-109.8,8,8,0,0,0-10-10,104.84,104.84,0,0,0-52.91,37A104,104,0,0,0,136,224a103.09,103.09,0,0,0,62.52-20.88,104.84,104.84,0,0,0,37-52.91A8,8,0,0,0,233.54,142.23ZM188.9,190.34A88,88,0,0,1,65.66,67.11a89,89,0,0,1,31.4-26A106,106,0,0,0,96,56,104.11,104.11,0,0,0,200,160a106,106,0,0,0,14.92-1.06A89,89,0,0,1,188.9,190.34Z"/>
  </symbol>
</svg>
